<svg xmlns="http://www.w3.org/2000/svg" viewBox="0 0 64 64">
  <!-- Yellow brain: two hemispheres with a center groove and fold lines -->
  <path fill="#FFD43B" stroke="#D9A400" stroke-width="2" stroke-linejoin="round"
        d="M32 8c-4-4-11-4-14 0-5-1-10 3-10 8-3 2-4 6-3 9-2 3-1 8 2 10-1 5 2 10 7 11 1 5 7 8 12 6 2 2 4 2 6 2s4 0 6-2c5 2 11-1 12-6 5-1 8-6 7-11 3-2 4-7 2-10 1-3 0-7-3-9 0-5-5-9-10-8-3-4-10-4-14 0z"/>
  <path fill="none" stroke="#D9A400" stroke-width="2" stroke-linecap="round"
        d="M32 9v44M22 14c-3 2-4 5-2 8M14 24c-2 3-1 6 1 8M18 38c-1 3 0 6 3 8M42 14c3 2 4 5 2 8M50 24c2 3 1 6-1 8M46 38c1 3 0 6-3 8"/>
</svg>
